<svg id="Capa_1" enable-background="new 0 0 512 512" height="512" viewBox="0 0 512 512" width="512" xmlns="http://www.w3.org/2000/svg"><g><circle cx="286" cy="106" r="10"/><circle cx="226" cy="106" r="10"/><path d="m307 294c4.418-3.313 5.313-9.582 2-14s-9.581-5.313-14-2c-16.841 12.631-26.5 31.949-26.5 53s9.659 40.369 26.5 53c11.757 8.818 18.5 22.304 18.5 37s-6.743 28.182-18.5 37c-4.418 3.313-5.313 9.582-2 14 3.297 4.396 9.561 5.329 14 2 16.841-12.631 26.5-31.949 26.5-53s-9.659-40.369-26.5-53c-11.757-8.818-18.5-22.304-18.5-37s6.743-28.182 18.5-37z"/><path d="m397 294c4.418-3.313 5.313-9.582 2-14-3.314-4.418-9.581-5.313-14-2-16.841 12.631-26.5 31.949-26.5 53s9.659 40.369 26.5 53c11.757 8.818 18.5 22.304 18.5 37s-6.743 28.182-18.5 37c-4.418 3.313-5.313 9.582-2 14 3.297 4.396 9.561 5.329 14 2 16.841-12.631 26.5-31.949 26.5-53s-9.659-40.369-26.5-53c-11.757-8.818-18.5-22.304-18.5-37s6.743-28.182 18.5-37z"/><path d="m217 294c4.418-3.313 5.313-9.582 2-14s-9.581-5.314-14-2c-16.841 12.631-26.5 31.949-26.5 53s9.659 40.369 26.5 53c11.757 8.818 18.5 22.304 18.5 37s-6.743 28.182-18.5 37c-4.418 3.313-5.313 9.582-2 14 3.297 4.396 9.561 5.329 14 2 16.841-12.631 26.5-31.949 26.5-53s-9.659-40.369-26.5-53c-11.757-8.818-18.5-22.304-18.5-37s6.743-28.182 18.5-37z"/><path d="m127 294c4.418-3.313 5.313-9.582 2-14-3.314-4.418-9.581-5.314-14-2-16.841 12.631-26.5 31.949-26.5 53s9.659 40.369 26.5 53c11.757 8.818 18.5 22.304 18.5 37s-6.743 28.182-18.5 37c-4.418 3.313-5.313 9.582-2 14 3.297 4.396 9.561 5.329 14 2 16.841-12.631 26.5-31.949 26.5-53s-9.659-40.369-26.5-53c-11.757-8.818-18.5-22.304-18.5-37s6.743-28.182 18.5-37z"/><circle cx="256" cy="226" r="10"/><path d="m472 36h-432c-22.056 0-40 17.944-40 40v150c0 5.523 4.477 10 10 10h201c5.523 0 10-4.477 10-10s-4.477-10-10-10h-131v-40h352v40h-131c-5.522 0-10 4.477-10 10s4.478 10 10 10h201c5.522 0 10-4.477 10-10v-150c0-22.056-17.944-40-40-40zm20 180h-40v-50c0-5.523-4.478-10-10-10h-372c-5.523 0-10 4.477-10 10v50h-40v-140c0-11.028 8.972-20 20-20h432c11.028 0 20 8.972 20 20z"/></g></svg>